<svg xmlns="http://www.w3.org/2000/svg" width="935.833" height="354.5" viewBox="238 500.5 935.833 354.5"><path d="M238.507 850.5V538c0-3 1.328-4.5 4-4.5h115.5c20.328 0 36.578 5.922 48.75 17.75 12.164 11.836 18.25 28.086 18.25 48.75v33c0 31-14.672 50.836-44 59.5 12 .672 22.828 6.5 32.5 17.5 9.664 11 14.5 25 14.5 42v36.5c0 20.672-6.086 36.922-18.25 48.75-12.172 11.836-28.422 17.75-48.75 17.75h-118.5c-2.672 0-4-1.5-4-4.5zm19.5-165h98c17 0 30.25-4.578 39.75-13.75 9.5-9.164 14.25-22.25 14.25-39.25v-32c0-17-4.5-30.078-13.5-39.25-9-9.164-21.836-13.75-38.5-13.75h-100c-3 0-4.5 1.336-4.5 4v130c0 2.672 1.5 4 4.5 4zm0 155.5h103c16.664 0 29.5-4.578 38.5-13.75 9-9.164 13.5-22.25 13.5-39.25v-35.5c0-35.328-19-53-57-53h-98c-3 0-4.5 1.336-4.5 4V837c0 2.672 1.5 4 4.5 4zm258.496 14h-7c-2.672 0-4-1.5-4-4.5v-246c0-3 1.328-4.5 4-4.5h7c2.664 0 4 1.5 4 4.5V627h2c3.664-6.664 10.078-12.828 19.25-18.5 9.164-5.664 21.078-8.5 35.75-8.5h20c3 0 4.5 1.336 4.5 4v6c0 2.672-1.5 4-4.5 4h-20.5c-17 0-30.672 5.336-41 16-10.336 10.672-15.5 25.172-15.5 43.5v177c0 3-1.336 4.5-4 4.5zM659.5 558.5V509c0-3 1.328-4.5 4-4.5h7c2.664 0 4 1.5 4 4.5v49.5c0 3-1.336 4.5-4 4.5h-7c-2.672 0-4-1.5-4-4.5zm0 292v-246c0-3 1.328-4.5 4-4.5h7c2.664 0 4 1.5 4 4.5v246c0 3-1.336 4.5-4 4.5h-7c-2.672 0-4-1.5-4-4.5zm108.498 4.5h-7c-2.672 0-4-1.5-4-4.5v-246c0-3 1.328-4.5 4-4.5h7c2.664 0 4 1.5 4 4.5V626h2c9.328-17.328 27-26 53-26h37c20.328 0 36.578 6.172 48.75 18.5 12.164 12.336 18.25 28.836 18.25 49.5v182.5c0 3-1.336 4.5-4 4.5h-7c-2.672 0-4-1.5-4-4.5v-182c0-17-4.5-30.328-13.5-40-9-9.664-21.836-14.5-38.5-14.5h-36c-16.672 0-30.172 4.5-40.5 13.5-10.336 9-15.5 21.836-15.5 38.5v184.5c0 3-1.336 4.5-4 4.5zm251.496 0h-7c-2.672 0-4-1.5-4-4.5V508c0-3 1.328-4.5 4-4.5h7c2.664 0 4 1.5 4 4.5v342.5c0 3-1.336 4.5-4 4.5zm132-255h7c3.664 0 4.328 1.5 2 4.5l-79.5 117.5v2l90 126.5c2.328 3 1.828 4.5-1.5 4.5h-8.5c-3.672 0-6.672-1.5-9-4.5l-87.5-124.5c-1.336-2-1.336-4 0-6l79-116.5c1.664-2.328 4.328-3.5 8-3.5z" fill="#53B7B0"/></svg>