<svg version="1" xmlns="http://www.w3.org/2000/svg" width="21.333" height="21.333" viewBox="0 0 16.000000 16.000000"><path d="M3.292.135c-.018.08-.024 3.674-.018 7.988l.018 7.846 3.385.019c3.502.018 3.754.006 4.296-.234.837-.376 1.403-1.065 1.643-2.006.11-.425.123-.671.123-1.945-.006-1.557-.043-1.828-.333-2.419-.227-.449-.787-1.021-1.236-1.237a3.434 3.434 0 0 0-.431-.184c-.031 0-.105-.012-.154-.019-.05-.006.037-.067.197-.129.861-.35 1.434-.966 1.686-1.815.142-.48.172-2.911.043-3.533-.086-.424-.37-1.114-.455-1.114-.031 0-.056-.036-.056-.08 0-.141-.664-.707-1.058-.898-.708-.35-.874-.363-4.4-.37L3.323 0l-.03.135zm6.702.658c1.052.253 1.674.973 1.797 2.087.019.19.05.369.062.394.018.03.006.049-.031.049s-.05.055-.019.135c.025.08.037.308.031.51a11.22 11.22 0 0 0-.018.444c0 .043 0 .197.006.338.012.677-.105 1.268-.326 1.662-.197.35-.936.954-1.2.985-.031 0-.117.03-.203.061-.277.105-.677.123-3.305.13-1.81 0-2.622-.019-2.677-.062-.068-.055-.08-.702-.08-3.379 0-3.298 0-3.31.13-3.378C4.344.677 9.593.7 9.993.793zm-.363 7.54c.523.055.72.091.806.165.05.037.086.056.086.031 0-.092.536.246.794.505.326.326.616.954.597 1.31 0 .13.012.216.037.204.05-.031.019 2.652-.03 2.837-.02.067-.05.203-.075.307-.141.573-.621 1.133-1.2 1.41l-.4.19-3.058.019c-2.893.018-3.059.012-3.114-.093-.074-.153-.055-6.769.018-6.843a.509.509 0 0 1 .216-.08c.24-.03 4.978 0 5.323.037z"/></svg>