<?xml version="1.0" standalone="no"?>
<!DOCTYPE svg PUBLIC "-//W3C//DTD SVG 20010904//EN"
 "http://www.w3.org/TR/2001/REC-SVG-20010904/DTD/svg10.dtd">
<svg version="1.0" xmlns="http://www.w3.org/2000/svg"
 width="16.000000pt" height="16.000000pt" viewBox="0 0 16.000000 16.000000"
 preserveAspectRatio="xMidYMid meet">
<metadata>
Created by potrace 1.11, written by Peter Selinger 2001-2013
</metadata>
<g transform="translate(0.000000,16.000000) scale(0.006154,-0.006154)"
fill="#000000" stroke="none">
<path d="M535 2578 c-3 -13 -4 -597 -3 -1298 l3 -1275 550 -3 c569 -3 610 -1
698 38 136 61 228 173 267 326 18 69 20 109 20 316 -1 253 -7 297 -54 393 -37
73 -128 166 -201 201 -33 16 -64 29 -70 30 -5 0 -17 2 -25 3 -8 1 6 11 32 21
140 57 233 157 274 295 23 78 28 473 7 574 -14 69 -60 181 -74 181 -5 0 -9 6
-9 13 0 23 -108 115 -172 146 -115 57 -142 59 -715 60 l-523 1 -5 -22z m1089
-107 c171 -41 272 -158 292 -339 3 -31 8 -60 10 -64 3 -5 1 -8 -5 -8 -6 0 -8
-9 -3 -22 4 -13 6 -50 5 -83 -2 -33 -3 -66 -3 -72 0 -7 0 -32 1 -55 2 -110
-17 -206 -53 -270 -32 -57 -152 -155 -195 -160 -5 0 -19 -5 -33 -10 -45 -17
-110 -20 -537 -21 -294 0 -426 3 -435 10 -11 9 -13 114 -13 549 0 536 0 538
21 549 30 15 883 11 948 -4z m-59 -1225 c85 -9 117 -15 131 -27 8 -6 14 -9 14
-5 0 15 87 -40 129 -82 53 -53 100 -155 97 -213 0 -21 2 -35 6 -33 8 5 3 -431
-5 -461 -3 -11 -8 -33 -12 -50 -23 -93 -101 -184 -195 -229 l-65 -31 -497 -3
c-470 -3 -497 -2 -506 15 -12 25 -9 1100 3 1112 6 5 21 11 35 13 39 5 809 0
865 -6z"/>
</g>
</svg>
